<?xml version="1.0" encoding="utf-8"?>
<!-- Generator: Adobe Illustrator 28.0.0, SVG Export Plug-In . SVG Version: 6.00 Build 0)  -->
<svg version="1.1" id="Layer_1" xmlns="http://www.w3.org/2000/svg" xmlns:xlink="http://www.w3.org/1999/xlink" x="0px" y="0px"
	 viewBox="0 0 261.6 50.2" style="enable-background:new 0 0 261.6 50.2;" xml:space="preserve">
<style type="text/css">
	.st0{opacity:0.5;fill:#FFFFFF;enable-background:new    ;}
	.st1{fill:#FFFFFF;}
</style>
<g>
	<g>
		<path class="st0" d="M34.7,34.6c0-2.6,0.3-4.4,0.3-6.8c0-1.4-0.9-2.7-5.1-2.7v-1.8c4.1,0,5.1-1.4,5.1-2.7c0-2.2-0.3-4.3-0.3-6.8
			c0-3.6,2.1-4.7,6.5-4.7h2.2v1.6h-1.8c-3.6,0-4.3,0.9-4.3,3.2c0,2,0.2,4.2,0.2,6.3c0,2.3-0.8,3.4-3.2,3.8v0.1
			c2.4,0.4,3.2,1.5,3.2,3.8c0,2.4-0.2,4.2-0.2,6.3c0,2.3,0.8,3.2,4.3,3.2h1.8v1.7h-2.2C36.8,39.3,34.7,38.2,34.7,34.6z"/>
		<path class="st1" d="M49.3,37.1c0-1.4,1-2.7,2.8-3.8v-0.1c-0.9-0.5-1.8-1.4-1.8-2.8c0-1.1,0.7-2.3,2-3.2V27
			c-1.2-0.9-2.1-2.4-2.1-4.4c0-3.7,3.1-6.1,6.7-6.1c1,0,1.8,0.1,2.5,0.4h7v2.4H62c0.8,0.8,1.4,2.1,1.4,3.4c0,3.6-2.9,5.9-6.6,5.9
			c-0.9,0-1.9-0.2-2.9-0.6c-0.8,0.5-1.3,1.1-1.3,2c0,1.3,1.3,2,3.5,2h3.8c4.4,0,6.5,1.1,6.5,4c0,3.2-3.7,5.9-9.5,5.9
			C52.2,41.8,49.3,40.1,49.3,37.1z M63.8,36.3c0-1.6-1.3-2.1-3.9-2.1h-3.3c-1,0-1.9-0.1-2.6-0.3c-1.6,0.9-2.2,1.9-2.2,2.8
			c0,1.8,1.9,2.9,5.6,2.9C61.3,39.7,63.8,38.1,63.8,36.3z M60.9,22.6c0-2.4-1.8-4-3.9-4c-2.1,0-3.9,1.6-3.9,4c0,2.5,1.8,4,3.9,4
			C59.2,26.6,60.9,25.1,60.9,22.6z"/>
		<path class="st1" d="M70.5,27.5V16.9h2.9v10.2c0,3.2,1.1,4.7,3.9,4.7c2,0,3.4-0.9,5.3-3.1V16.9h2.9v17h-2.4l-0.2-3h-0.1
			c-1.7,2-3.7,3.4-6.3,3.4C72.4,34.4,70.5,32,70.5,27.5z"/>
		<path class="st1" d="M99.8,19.3H92V17h10.8v17h-2.9L99.8,19.3L99.8,19.3z M98.7,11.1c0-1.3,1-2.2,2.3-2.2s2.3,0.9,2.3,2.2
			c0,1.4-1,2.2-2.3,2.2S98.7,12.5,98.7,11.1z"/>
		<path class="st1" d="M111.9,25.5c0-5.5,3.7-9,7.7-9c2,0,3.6,0.8,5.1,2.2h0.1l-0.1-3.1V9h2.9v25h-2.4l-0.2-2.2h-0.1
			c-1.4,1.4-3.4,2.7-5.6,2.7C114.9,34.4,111.9,31.2,111.9,25.5z M124.7,29.4v-8.5c-1.5-1.4-3-2-4.4-2c-2.9,0-5.3,2.6-5.3,6.5
			c0,4.1,1.9,6.5,5,6.5C121.6,31.9,123.1,31.1,124.7,29.4z"/>
		<path class="st1" d="M133.6,29.5c0-3.8,3.6-5.7,12.4-6.4c-0.1-2.3-1.2-4.3-4.5-4.3c-2.2,0-4.4,1-5.9,2l-1.2-2
			c1.8-1.1,4.6-2.4,7.6-2.4c4.7,0,6.9,2.8,6.9,7V34h-2.4l-0.2-2.3h-0.1c-1.9,1.5-4.3,2.7-6.7,2.7C136.2,34.4,133.6,32.6,133.6,29.5z
			 M146,29.5v-4.4c-7.3,0.6-9.5,2-9.5,4.2c0,1.9,1.8,2.7,3.7,2.7C142.1,32,144,31.1,146,29.5z"/>
		<path class="st1" d="M155.1,16.9h2.4l0.2,2.9h0.1c1.8-1.9,3.8-3.3,6.4-3.3c4,0,5.9,2.4,5.9,6.9V34h-2.9V23.8
			c0-3.2-1.1-4.7-3.9-4.7c-2,0-3.4,1-5.4,3V34H155L155.1,16.9L155.1,16.9z"/>
		<path class="st1" d="M175.6,25.5c0-5.7,4.3-9,9.5-9c2.8,0,4.8,1.1,6.2,2.5l-1.4,1.9c-1.4-1.2-2.9-1.9-4.7-1.9
			c-3.9,0-6.6,2.6-6.6,6.6c0,3.9,2.7,6.5,6.6,6.5c2.1,0,3.9-1,5.2-2.1l1.3,1.9c-1.9,1.7-4.2,2.7-6.8,2.7
			C179.6,34.4,175.6,31.1,175.6,25.5z"/>
		<path class="st1" d="M196.2,25.4c0-5.5,4.1-8.9,8.7-8.9c4.9,0,7.8,3.2,7.8,8c0,0.7-0.1,1.3-0.1,1.8h-14.4V24h12.7l-0.7,0.8
			c0-4-2-6-5.1-6s-5.9,2.4-5.9,6.6c0,4.4,2.9,6.6,6.6,6.6c2,0,3.6-0.6,5.2-1.6l1.1,1.9c-1.7,1.1-3.9,2-6.6,2
			C200.3,34.4,196.2,31.1,196.2,25.4z"/>
		<path class="st0" d="M218.3,37.6h1.8c3.6,0,4.4-0.9,4.4-3.2c0-2.1-0.2-4-0.2-6.3s0.7-3.4,3.1-3.8v-0.1c-2.4-0.4-3.1-1.5-3.1-3.8
			c0-2.2,0.2-4.3,0.2-6.3c0-2.3-0.8-3.2-4.4-3.2h-1.8V9.2h2.1c4.4,0,6.4,1.1,6.4,4.7c0,2.4-0.3,4.5-0.3,6.8c0,1.4,0.9,2.7,5.1,2.7
			v1.8c-4.1,0-5.1,1.4-5.1,2.7c0,2.4,0.3,4.2,0.3,6.8c0,3.6-2,4.7-6.4,4.7h-2.1V37.6z"/>
	</g>
</g>
</svg>
