<?xml version="1.0" encoding="utf-8"?>
<!-- Generator: Adobe Illustrator 27.4.0, SVG Export Plug-In . SVG Version: 6.00 Build 0)  -->
<svg version="1.1" id="Layer_1" xmlns="http://www.w3.org/2000/svg" xmlns:xlink="http://www.w3.org/1999/xlink" x="0px" y="0px"
	 viewBox="0 0 252 44.94" style="enable-background:new 0 0 252 44.94;" xml:space="preserve">
<style type="text/css">
	.st0{opacity:0.5;fill:#1F7AFF;}
</style>
<g>
	<g>
		<path class="st0" d="M8.93,29.72c0-2.56,0.35-4.41,0.35-6.76c0-1.36-0.94-2.7-5.08-2.73v-1.82c4.13-0.04,5.08-1.37,5.08-2.73
			c0-2.21-0.35-4.34-0.35-6.76c0-3.61,2.1-4.66,6.48-4.66h2.17v1.65h-1.82c-3.57,0-4.34,0.91-4.34,3.19c0,2,0.21,4.17,0.21,6.34
			c0,2.27-0.77,3.4-3.19,3.81v0.14c2.42,0.42,3.19,1.54,3.19,3.82c0,2.38-0.21,4.2-0.21,6.34c0,2.27,0.77,3.19,4.34,3.19h1.82v1.65
			H15.4C11.03,34.37,8.93,33.32,8.93,29.72z"/>
		<path class="st0" d="M29.93,29.72c0-2.56,0.35-4.41,0.35-6.76c0-1.36-0.94-2.7-5.08-2.73v-1.82c4.13-0.04,5.08-1.37,5.08-2.73
			c0-2.21-0.35-4.34-0.35-6.76c0-3.61,2.1-4.66,6.48-4.66h2.17v1.65h-1.82c-3.57,0-4.34,0.91-4.34,3.19c0,2,0.21,4.17,0.21,6.34
			c0,2.27-0.77,3.4-3.19,3.81v0.14c2.42,0.42,3.19,1.54,3.19,3.82c0,2.38-0.21,4.2-0.21,6.34c0,2.27,0.77,3.19,4.34,3.19h1.82v1.65
			H36.4C32.03,34.37,29.93,33.32,29.93,29.72z"/>
		<path d="M44.52,32.17c0-1.37,0.98-2.73,2.8-3.78v-0.14c-0.91-0.49-1.75-1.37-1.75-2.8c0-1.08,0.74-2.31,2.03-3.19v-0.14
			c-1.16-0.88-2.1-2.38-2.1-4.41c0-3.71,3.08-6.09,6.69-6.09c0.98,0,1.79,0.14,2.52,0.42h7.04v2.35h-4.41
			c0.77,0.81,1.44,2.07,1.44,3.43c0,3.64-2.91,5.85-6.58,5.85c-0.88,0-1.93-0.21-2.87-0.63c-0.84,0.52-1.33,1.15-1.33,1.96
			c0,1.33,1.29,1.96,3.54,1.96h3.82c4.38,0,6.48,1.12,6.48,3.99c0,3.19-3.68,5.95-9.45,5.95C47.39,36.89,44.52,35.18,44.52,32.17z
			 M58.98,31.4c0-1.61-1.29-2.07-3.89-2.07h-3.33c-0.98,0-1.86-0.07-2.59-0.28C47.56,29.93,47,30.91,47,31.89
			c0,1.79,1.93,2.91,5.57,2.91C56.53,34.79,58.98,33.15,58.98,31.4z M56.11,17.71c0-2.38-1.75-3.99-3.92-3.99
			c-2.14,0-3.92,1.61-3.92,3.99c0,2.45,1.79,4.03,3.92,4.03C54.36,21.73,56.11,20.16,56.11,17.71z"/>
		<path d="M65.69,22.61V12.04h2.91v10.19c0,3.19,1.12,4.73,3.92,4.73c1.96,0,3.4-0.91,5.29-3.12v-11.8h2.91v17.01H78.3l-0.24-2.98
			h-0.14c-1.72,2-3.71,3.4-6.34,3.4C67.55,29.47,65.69,27.09,65.69,22.61z"/>
		<path d="M95.02,14.38h-7.88v-2.35h10.78v17.01h-2.91V14.38z M93.87,6.23c0-1.33,0.98-2.24,2.31-2.24s2.31,0.91,2.31,2.24
			c0,1.37-0.98,2.24-2.31,2.24S93.87,7.59,93.87,6.23z"/>
		<path d="M107.1,20.58c0-5.53,3.68-8.96,7.7-8.96c2.03,0,3.61,0.8,5.11,2.17h0.07l-0.14-3.12V4.13h2.91v24.92h-2.38l-0.25-2.24
			h-0.1c-1.4,1.44-3.43,2.66-5.57,2.66C110.04,29.47,107.1,26.25,107.1,20.58z M119.84,24.5v-8.47c-1.54-1.44-2.98-1.96-4.45-1.96
			c-2.94,0-5.32,2.59-5.32,6.48c0,4.06,1.89,6.48,5.01,6.48C116.76,27.02,118.33,26.18,119.84,24.5z"/>
		<path d="M128.8,24.64c0-3.82,3.57-5.67,12.36-6.37c-0.1-2.31-1.23-4.27-4.52-4.27c-2.21,0-4.38,1.05-5.95,2.03l-1.16-1.96
			c1.75-1.12,4.62-2.45,7.6-2.45c4.66,0,6.93,2.77,6.93,7v10.43h-2.42l-0.24-2.31h-0.11c-1.85,1.47-4.31,2.73-6.69,2.73
			C131.42,29.47,128.8,27.69,128.8,24.64z M141.15,24.6v-4.41c-7.28,0.56-9.49,2-9.49,4.24c0,1.93,1.75,2.7,3.71,2.7
			C137.3,27.12,139.19,26.21,141.15,24.6z"/>
		<path d="M150.25,12.04h2.38l0.25,2.87h0.14c1.79-1.85,3.75-3.29,6.41-3.29c4.03,0,5.88,2.38,5.88,6.86v10.57h-2.91V18.86
			c0-3.22-1.12-4.73-3.89-4.73c-2.03,0-3.4,1.02-5.36,3.05v11.87h-2.91V12.04z"/>
		<path d="M170.8,20.58c0-5.71,4.34-8.96,9.49-8.96c2.77,0,4.8,1.12,6.2,2.48l-1.44,1.86c-1.4-1.19-2.87-1.93-4.66-1.93
			c-3.92,0-6.62,2.63-6.62,6.55c0,3.89,2.66,6.48,6.55,6.48c2.1,0,3.85-0.95,5.25-2.14l1.3,1.89c-1.89,1.68-4.24,2.66-6.76,2.66
			C174.79,29.47,170.8,26.21,170.8,20.58z"/>
		<path d="M191.38,20.51c0-5.53,4.13-8.89,8.68-8.89c4.9,0,7.77,3.19,7.77,7.98c0,0.67-0.07,1.3-0.14,1.75H193.3v-2.24h12.67
			l-0.73,0.81c0-4.03-2-6.02-5.11-6.02c-3.15,0-5.88,2.38-5.88,6.62c0,4.41,2.87,6.65,6.65,6.65c2.03,0,3.64-0.63,5.18-1.61
			l1.05,1.89c-1.68,1.12-3.85,2.03-6.58,2.03C195.44,29.47,191.38,26.18,191.38,20.51z"/>
		<path class="st0" d="M213.46,32.73h1.79c3.57,0,4.38-0.91,4.38-3.19c0-2.14-0.21-3.96-0.21-6.34c0-2.27,0.73-3.4,3.15-3.82v-0.14
			c-2.42-0.42-3.15-1.54-3.15-3.81c0-2.17,0.21-4.34,0.21-6.34c0-2.28-0.81-3.19-4.38-3.19h-1.79V4.27h2.14
			c4.41,0,6.44,1.05,6.44,4.66c0,2.42-0.31,4.55-0.31,6.76c0,1.37,0.95,2.7,5.08,2.73v1.82c-4.13,0.03-5.08,1.37-5.08,2.73
			c0,2.35,0.31,4.2,0.31,6.76c0,3.61-2.03,4.66-6.44,4.66h-2.14V32.73z"/>
		<path class="st0" d="M234.46,32.73h1.79c3.57,0,4.38-0.91,4.38-3.19c0-2.14-0.21-3.96-0.21-6.34c0-2.27,0.73-3.4,3.15-3.82v-0.14
			c-2.42-0.42-3.15-1.54-3.15-3.81c0-2.17,0.21-4.34,0.21-6.34c0-2.28-0.81-3.19-4.38-3.19h-1.79V4.27h2.14
			c4.41,0,6.44,1.05,6.44,4.66c0,2.42-0.31,4.55-0.31,6.76c0,1.37,0.95,2.7,5.08,2.73v1.82c-4.13,0.03-5.08,1.37-5.08,2.73
			c0,2.35,0.31,4.2,0.31,6.76c0,3.61-2.03,4.66-6.44,4.66h-2.14V32.73z"/>
	</g>
</g>
</svg>
